<svg width="36" height="36" viewBox="0 0 36 36" fill="none" xmlns="http://www.w3.org/2000/svg">
<path d="M17.1947 1.52806C14.719 -0.910101 21.4492 5.71806 24.489 8.71175C25.1508 9.36354 25.4817 9.68943 25.8915 9.68943C26.3012 9.68943 26.6315 9.36418 27.292 8.71368C29.6005 6.44021 34.0083 2.09916 34.5882 1.52806C35.3788 0.749441 17.1947 18.6579 17.1947 18.6579M2.17296 33.4518C-4.15686 39.7838 17.1947 18.6579 17.1947 18.6579M17.1947 18.6579L19.3798 25.6518C19.8172 27.0517 20.0358 27.7516 20.5803 27.8878C21.1248 28.024 21.6472 27.5095 22.6922 26.4804L28.186 21.0699C29.2755 19.9968 29.8203 19.4603 30.3752 19.6115C30.9301 19.7628 31.1271 20.5009 31.5213 21.9772C33.0991 27.8875 36.0948 39.107 34.5882 33.4518" stroke="#D0FFCE" stroke-width="2"/>
</svg>
